<svg width="196" height="35" viewBox="0 0 196 35" fill="none" xmlns="http://www.w3.org/2000/svg">
<path d="M177.821 21.1843L189.235 14.5248L177.821 7.86542V21.1843Z" fill="black"/>
<path fill-rule="evenodd" clip-rule="evenodd" d="M196 14.5249C196 22.5467 189.564 29.0497 181.626 29.0497C173.688 29.0497 167.253 22.5467 167.253 14.5249C167.253 6.50301 173.688 0 181.626 0C189.564 0 196 6.50301 196 14.5249ZM194.17 14.5249C194.17 21.5258 188.554 27.2011 181.626 27.2011C174.698 27.2011 169.082 21.5258 169.082 14.5249C169.082 7.52397 174.698 1.84862 181.626 1.84862C188.554 1.84862 194.17 7.52397 194.17 14.5249Z" fill="black"/>
<path d="M144.65 3.08826H160.907L160.578 7.53753H159.702C159.702 5.68366 158.936 4.99509 158.662 4.67728C157.677 4.62431 154.612 4.14761 150.781 4.57135C150.562 6.05444 150.452 8.80875 150.616 13.4169C150.726 13.8936 156.692 13.5229 157.458 13.4699L157.349 15.1648C156.637 15.0059 150.616 14.953 150.507 15.4826C150.452 16.595 150.507 23.4807 150.616 25.1227C154.174 25.6524 159.921 25.3346 160.961 25.0698C161.454 24.3282 162.111 22.7922 162.33 21.8387H162.986V26.7647H145.417V26.1291L147.332 25.4935C147.825 22.5273 147.934 10.6096 147.497 4.51838L144.65 3.8298V3.08826H144.65Z" fill="black"/>
<path d="M84.5498 3.08826H100.806L100.478 7.53753H99.6018C99.6018 5.68366 98.8355 4.99509 98.5619 4.67728C97.5766 4.62431 94.5115 4.14761 90.6801 4.57135C90.4611 6.05444 90.3517 8.80875 90.5159 13.4169C90.6253 13.8936 96.5914 13.5229 99.5471 13.4699L99.4376 15.1648C96.5367 15.0059 90.5159 14.953 90.4064 15.4826C90.3517 16.595 90.4064 23.4807 90.5159 25.1227C94.0736 25.6524 99.8208 25.3346 100.861 25.0698C101.353 24.3282 102.01 22.7922 102.229 21.8387H102.886V26.7647H85.3161V26.1291L87.2318 25.4935C87.7244 22.5273 87.8339 10.6096 87.396 4.51838L84.5498 3.8298V3.08826Z" fill="black"/>
<path fill-rule="evenodd" clip-rule="evenodd" d="M74.3279 26.7647C82.4678 26.7647 86.5874 20.6204 86.5874 13.4169C86.5874 6.58405 83.1131 3.0882 75.8169 3.0882H65.1953V3.88271L67.7763 4.57129C68.1733 10.6625 68.0741 22.5802 67.6274 25.5464L66.0887 25.9172V26.7647H74.3279ZM83.6096 14.794C83.6096 24.54 77.2565 25.2815 74.477 25.2815C73.6829 25.2815 71.3997 25.2286 70.7545 25.0167C70.6056 20.3556 70.556 6.21324 70.7545 4.73015C73.768 4.36262 74.1677 4.39357 74.8037 4.4428C74.901 4.45033 75.0038 4.45829 75.1223 4.46532C77.8025 4.51828 83.6096 5.04796 83.6096 14.794Z" fill="black"/>
<path d="M19.3555 3.08826H35.5152L35.1887 7.53753H34.3182C34.3182 5.68366 33.5564 4.99509 33.2844 4.67728C32.305 4.62431 29.258 4.14761 25.4494 4.57135C25.2317 6.05444 25.1229 8.80875 25.2861 13.4169C25.395 13.8936 31.3256 13.5229 34.2638 13.4699V15.1648C31.38 15.0059 25.395 14.953 25.2861 15.4826C25.2317 16.595 25.2861 23.4807 25.395 25.1227C28.9316 25.6524 34.6446 25.3346 35.6784 25.0698C36.1681 24.3282 36.821 22.7922 37.0386 21.8387H37.6916V26.7647H20.1716V26.1291L22.076 25.4935C22.5656 22.5273 22.6745 10.6096 22.2392 4.51838L19.4099 3.8298V3.08826H19.3555Z" fill="black"/>
<path d="M64.176 3.14111V3.93384L60.9262 4.62089C60.4263 10.6457 60.4263 22.5896 60.9887 25.5492L64.051 26.0777V26.7647H53.9893V26.0248L57.0515 25.4963C57.614 22.5368 57.739 10.6457 57.239 4.56804L53.9893 3.881V3.08826H64.176V3.14111Z" fill="black"/>
<path d="M123.671 26.7647C123.265 20.7399 123.366 7.3162 123.824 4.35664L126.314 3.82815V3.08826H119.148V3.82815L121.893 4.40949C122.35 7.36905 122.096 15.5607 121.893 21.5326C113.71 12.1783 107.713 3.14111 107.713 3.14111H102.885V3.93384L105.528 4.62089C105.934 10.6457 105.833 22.5896 105.375 25.5492L102.885 26.0777V26.7647H110.051V26.0248L107.306 25.4435C106.849 22.4839 107.103 13.4996 107.306 7.47475C109.848 10.6985 122.147 26.7119 122.147 26.7119H123.671V26.7647Z" fill="black"/>
<path d="M11.3969 0H0.19735V0.931953L3.10826 1.70858C3.55229 8.38757 3.50296 21.3831 3.00958 24.645L0 25.4734V26.25H9.42344V25.4734L6.41386 24.645C6.26585 19.5192 5.72314 2.32988 6.51254 1.60503C7.49928 1.39793 8.83139 1.34615 9.81814 1.39793C11.841 1.4497 14.8506 2.12278 14.8506 6.42012C14.8506 10.7692 11.4463 12.3225 8.63404 12.3225C8.042 12.3225 7.40061 12.2707 7.40061 12.2707L7.15392 12.9438C7.59796 13.2544 7.99266 13.7204 8.63404 14.5488C9.32477 15.429 15.0479 23.8166 18.0082 27.0784C20.9684 30.3402 25.1621 35 31.9706 35C33.1054 35 34.3388 34.7929 34.6349 34.6894V33.9127C31.9706 34.4305 27.8263 34.5858 21.7578 27.0784C21.7578 27.0784 14.1105 17.3965 11.1009 13.0473C15.788 12.1672 18.1562 9.42308 18.1562 5.33284C18.2055 1.2426 14.5545 0 11.3969 0Z" fill="black"/>
<path d="M51.1254 7.23563L51.4484 2.802C49.2797 1.9575 47.388 2.06306 46.2806 2.06306C44.7579 2.06306 40.0515 2.69644 39.7285 9.24132C39.7285 12.3554 41.0205 13.7277 43.6967 14.8361C46.3728 15.9973 50.5256 15.7334 50.5256 19.9559C50.5256 24.2312 47.6187 25.3396 45.5884 25.3396C43.5582 25.3396 42.0817 24.4951 41.205 23.2284L40.8359 20.8532H40.0054L39.8669 25.973C41.8049 26.6064 43.3275 26.7647 44.3888 26.7647C45.4962 26.7647 53.0172 26.0786 52.971 19.1114C52.9249 15.3112 50.5717 13.8333 48.5415 13.1999C46.4651 12.5138 41.4357 11.8276 41.7126 8.29126C41.9894 5.01881 43.143 3.32981 46.6036 3.32981C48.6799 3.32981 50.0641 4.70213 50.0641 4.70213L50.4333 7.23563H51.1254Z" fill="black"/>
<path d="M145.67 4.37005L145.234 8.51063H144.459L144.072 6.31255C142.522 4.779 140.003 4.2167 138.114 4.2167C136.225 4.2167 130.316 5.23906 130.316 14.3381C130.316 23.3349 136.661 25.6353 139.422 25.6353C142.667 25.6353 145.137 23.3861 145.137 23.3861L145.525 23.6928L144.75 25.533C142.57 26.6065 139.809 26.7599 138.889 26.7599C137.969 26.7599 128.088 27.3733 127.362 14.7982C126.78 4.88123 135.547 2.98986 139.18 3.09209C140.391 3.09209 142.57 3.09209 145.67 4.37005Z" fill="black"/>
</svg>
